<?xml version="1.0" ?>
<svg style="enable-background:new 0 0 64 64;" version="1.1" viewBox="0 0 64 64" xml:space="preserve" xmlns="http://www.w3.org/2000/svg" xmlns:xlink="http://www.w3.org/1999/xlink">
  <circle style="fill:#FFBF0B;" cx="32" cy="32" r="32"/>
  <path style="fill:#1A1A54;" d="M32,46L32,46c-4.4,0-8-3.6-8-8v-4c0-1.1,0.9-2,2-2h12c1.1,0,2,0.9,2,2v4C40,42.4,36.4,46,32,46z"/>
  <path style="fill:#DC2863;" d="M32,46c2.7,0,5.1-1.3,6.5-3.4c-1.5-2-3.8-3.3-6.5-3.3s-5,1.3-6.5,3.3C26.9,44.7,29.3,46,32,46z"/>
  <path style="fill:#DC2863;" d="M59.9,19.6c1.8-3.5,1.8-7.5-1-10.3C56.1,6.5,50.5,7,48.6,11C46.8,7,41.2,6.5,38.4,9.3c-2.8,2.8-3.2,6.3-1.4,10  c3.1,6.4,8.6,9.5,10.8,10.5c0.6,0.3,1.2,0.3,1.7,0C51.6,28.7,56.9,25.5,59.9,19.6z"/>
  <path style="fill:#DC2863;" d="M26.9,19.6c1.8-3.5,1.8-7.5-1-10.3C23.1,6.5,17.5,7,15.6,11C13.8,7,8.2,6.5,5.4,9.3c-2.8,2.8-3.2,6.3-1.4,10  c3.1,6.4,8.6,9.5,10.8,10.5c0.6,0.3,1.2,0.3,1.7,0C18.6,28.7,23.9,25.5,26.9,19.6z"/>
</svg>